<?xml version="1.0" encoding="UTF-8"?>
<svg version="1.1" xmlns="http://www.w3.org/2000/svg" width="30" height="30">
<path d="M0 0 C9.9 0 19.8 0 30 0 C30 9.9 30 19.8 30 30 C20.1 30 10.2 30 0 30 C0 20.1 0 10.2 0 0 Z " fill="#002300" transform="translate(0,0)"/>
<path d="M0 0 C3.22944963 3.14664323 4.972082 5.60410022 5.0625 10.125 C5.041875 11.07375 5.02125 12.0225 5 13 C4.34 13 3.68 13 3 13 C3.66 14.65 4.32 16.3 5 18 C2.83125748 17.49396008 1.00032373 17.00016187 -1 16 C-1.33 16.66 -1.66 17.32 -2 18 C-5.95679828 18.46009282 -7.54625856 18.33274372 -10.8125 15.9375 C-13.43828382 12.41144744 -14.07836758 10.38858425 -14 6 C-10.44347959 0.35862279 -6.62071535 -1.20615012 0 0 Z " fill="#001F00" transform="translate(23,5)"/>
<path d="M0 0 C2.5 2.0625 2.5 2.0625 4 5 C4.25 8.8125 4.25 8.8125 4 12 C3.34 12 2.68 12 2 12 C1.34 9.03 0.68 6.06 0 3 C-4.65951036 2.6150192 -4.65951036 2.6150192 -8.9375 4.125 C-10.48138276 6.84949899 -10.3267107 8.92891945 -10 12 C-7.3144406 14.6855594 -4.62378672 15.06049974 -1 16 C-1.33 16.66 -1.66 17.32 -2 18 C-5.95679828 18.46009282 -7.54625856 18.33274372 -10.8125 15.9375 C-13.43828382 12.41144744 -14.07836758 10.38858425 -14 6 C-10.41920005 0.32011043 -6.64419897 -1.14238204 0 0 Z " fill="#00DF00" transform="translate(23,5)"/>
<path d="M0 0 C0.12375 1.11375 0.2475 2.2275 0.375 3.375 C0.6465813 7.03103677 0.6465813 7.03103677 3 9 C5.31765729 9.71927295 7.65095874 10.3909893 10 11 C9.67 11.66 9.34 12.32 9 13 C5.04320172 13.46009282 3.45374144 13.33274372 0.1875 10.9375 C-2.3525648 7.52655584 -2.75307684 5.19769372 -3 1 C-1 0 -1 0 0 0 Z " fill="#00CC00" transform="translate(12,10)"/>
<path d="M0 0 C2.86697492 1.28519565 4.97607712 2.57129254 7 5 C7 5.66 7 6.32 7 7 C3.76509224 6.44225728 2.02144994 5.62788492 0 3 C0 2.01 0 1.02 0 0 Z " fill="#00C500" transform="translate(21,16)"/>
</svg>
